<svg width="57" height="57" viewBox="0 0 57 57" fill="none" xmlns="http://www.w3.org/2000/svg">
<circle cx="28.5" cy="28.5" r="27.5" stroke="white" stroke-width="2"/>
<path fill-rule="evenodd" clip-rule="evenodd" d="M15.96 22.42L23.94 37.62H25.08V33.06L16.72 18.24H12.16V22.42H12.16V37.62H15.96V22.42ZM25.08 18.62V18.24H28.88V18.62V19V37.62H25.08V19V18.62Z" fill="white"/>
<path d="M37.2401 21.8992L39.5201 18.24H42.5601L39.1401 21.8992H37.2401Z" fill="white"/>
<path fill-rule="evenodd" clip-rule="evenodd" d="M38.76 38C42.5377 38 45.6 34.7233 45.6 30.6814C45.6 26.6395 42.5377 23.3629 38.76 23.3629C34.9824 23.3629 31.92 26.6395 31.92 30.6814C31.92 34.7233 34.9824 38 38.76 38ZM38.76 35.0726C40.8587 35.0726 42.56 33.1066 42.56 30.6815C42.56 28.2563 40.8587 26.2904 38.76 26.2904C36.6613 26.2904 34.96 28.2563 34.96 30.6815C34.96 33.1066 36.6613 35.0726 38.76 35.0726Z" fill="white"/>
</svg>
